<svg width="500" height="411" viewBox="0 0 500 411" fill="none" xmlns="http://www.w3.org/2000/svg">
<path d="M223.738 254.874C229.126 251.417 234.29 248.109 239.379 244.674C240.595 243.853 241.529 242.567 242.65 241.568C248.312 236.519 251.534 236.427 257.117 241.664C263.922 248.047 270.846 254.014 280.082 256.019C295.617 259.392 309.187 256.172 320.505 243.633C327.802 235.55 328.153 235.559 336.613 242.472C344.853 249.206 353.508 254.813 363.957 256.392C367.946 256.995 372.012 257.294 376.039 257.251C380.294 257.205 381.537 258.123 381.54 262.688C381.557 286.338 381.548 309.988 381.548 333.638C381.548 352.245 381.548 370.853 381.548 389.461C381.548 390.763 381.548 392.066 381.548 393.766C383.305 393.766 384.822 393.712 386.334 393.78C388.348 393.87 390.404 393.817 392.362 394.245C398.629 395.613 400.488 398.315 399.832 404.667C399.482 408.055 395.431 410.931 390.752 410.95C380.288 410.994 369.825 410.964 359.361 410.964C357.223 410.964 355.085 410.967 352.948 410.964C347.923 410.956 347.199 410.164 347.198 404.651C347.195 395.527 347.211 386.403 347.184 377.279C347.179 375.64 347.003 374.002 346.894 372.172C318.819 372.172 291.068 372.172 262.905 372.172C262.784 374.822 262.578 377.401 262.565 379.981C262.521 388.379 262.564 396.777 262.542 405.175C262.53 409.918 261.576 410.949 257.271 410.961C252.096 410.975 246.919 410.893 241.745 410.991C238.739 411.047 237.429 409.434 237.257 406.452C237.195 405.376 237.239 404.292 237.239 403.212C237.239 361.915 237.239 320.618 237.239 279.32C237.239 277.902 237.239 276.483 237.239 274.632C208.996 274.632 181.088 274.632 152.752 274.632C152.752 278.287 152.754 281.617 152.751 284.946C152.72 325.282 152.694 365.617 152.647 405.952C152.642 409.761 151.551 410.945 148.065 410.953C135.126 410.982 122.187 411.01 109.248 410.952C102.824 410.923 99.7142 407.519 100.172 400.802C100.276 399.281 101.269 397.142 102.428 396.531C104.977 395.188 107.85 394.37 110.673 393.853C112.962 393.434 115.372 393.768 118.305 393.768C118.305 392.4 118.305 391.033 118.305 389.665C118.305 347.888 118.305 306.111 118.306 264.333C118.306 257.594 118.76 257.341 124.949 257.336C136.916 257.328 148.063 254.273 157.904 246.611C161.615 243.721 165.532 241.132 169.366 238.425C171.484 236.93 173.362 237.347 175.112 239.225C176.379 240.585 177.852 241.735 179.056 243.15C191.406 257.667 206.629 259.796 223.738 254.874ZM298.928 364.735C312.993 364.735 327.064 365.011 341.121 364.647C352.202 364.36 354.451 367.89 354.028 378.391C353.692 386.735 353.961 395.108 353.961 403.414C364.477 404.744 390.813 403.979 393.399 401.732C390.486 401.493 388.22 401.198 385.95 401.15C383.597 401.101 381.233 401.449 378.887 401.333C376.12 401.196 374.722 399.683 374.734 396.462C374.765 387.707 374.496 378.95 374.487 370.193C374.453 336.577 374.473 302.96 374.473 269.343C374.473 267.931 374.473 266.52 374.473 265.026C370.282 264.538 366.377 264.237 362.518 263.606C351.071 261.737 341.397 255.869 332.43 248.338C328.641 245.157 328.422 245.245 325.125 248.978C315.256 260.151 303.092 265.153 288.818 264.607C275.291 264.088 263.808 258.606 254.091 248.575C250.048 244.401 249.775 244.444 245.771 248.499C236.93 257.452 226.793 263.298 214.445 264.366C200.475 265.574 187.823 262.446 177.49 251.742C175.494 249.674 173.975 247.083 171.968 244.37C157.821 257.169 143.217 265.324 125.174 264.575C125.174 266.38 125.174 267.67 125.174 268.961C125.174 282.047 125.184 295.134 125.171 308.22C125.143 337.514 125.112 366.808 125.06 396.101C125.053 400.069 124.068 401.221 120.302 401.405C118.069 401.513 115.815 401.083 113.576 401.142C111.354 401.202 109.139 401.572 106.921 401.806C106.951 402.374 106.98 402.943 107.01 403.511C119.883 404.012 132.769 403.647 145.887 403.714C145.887 401.93 145.887 400.628 145.887 399.325C145.887 373.993 145.917 348.66 145.875 323.327C145.852 308.927 145.684 294.527 145.635 280.127C145.599 269.417 147.92 266.975 157.919 266.975C182.448 266.975 206.978 266.975 231.508 266.975C242.273 266.975 244.312 269.143 244.313 280.612C244.315 320.112 244.314 359.612 244.314 399.111C244.314 400.524 244.314 401.936 244.314 403.443C248.25 403.443 251.863 403.443 255.523 403.443C255.57 402.306 255.633 401.47 255.634 400.634C255.642 392.356 255.563 384.077 255.66 375.8C255.763 367.09 258.072 364.74 266.184 364.736C276.873 364.732 287.563 364.735 298.928 364.735Z" fill="#FABF14"/>
<path d="M248.698 166.01C248.674 187.604 248.606 208.838 248.672 230.072C248.682 233.191 247.697 235.055 245.171 236.74C242.056 238.819 239.385 241.652 236.515 244.151C223.312 255.644 208.643 257.832 192.939 251.368C189.498 249.951 186.563 246.973 183.605 244.434C180.46 241.733 177.629 238.618 174.536 235.844C172.786 234.274 172.217 232.695 172.735 230.212C178.652 201.813 184.503 173.398 190.261 144.962C190.956 141.534 192.494 140.106 195.772 140.124C211.737 140.214 227.702 140.155 243.668 140.192C247.649 140.201 248.668 141.32 248.685 145.496C248.713 152.214 248.696 158.932 248.698 166.01Z" fill="#FABD0E"/>
<path d="M251.118 191.225C251.135 175.862 251.145 160.859 251.174 145.857C251.182 141.135 252.043 140.199 256.505 140.191C272.252 140.162 288.001 140.218 303.748 140.116C307.1 140.094 308.821 141.329 309.566 145.007C315.231 172.988 321.012 200.943 326.868 228.879C327.604 232.386 327.029 234.767 324.1 236.824C321.879 238.384 320.03 240.59 318.148 242.646C307.63 254.136 294.855 256.683 280.616 253.565C273.953 252.106 268.251 248.731 263.145 243.977C260.104 241.146 256.64 238.821 253.681 235.905C252.465 234.706 251.445 232.565 251.412 230.83C251.163 217.751 251.183 204.667 251.118 191.225Z" fill="#FABD0E"/>
<path d="M181.426 176.436C177.607 194.728 173.922 212.743 170.082 230.721C169.681 232.602 168.754 234.783 167.405 235.939C157.37 244.532 146.976 252.314 133.695 254.422C118.654 256.81 105.868 249.64 100.963 234.657C99.7642 230.996 99.5859 225.944 100.993 222.482C111.661 196.228 122.868 170.224 133.822 144.101C135.038 141.202 136.648 139.976 139.722 140.008C154.001 140.161 168.282 140.068 182.562 140.08C187.461 140.084 188.615 141.628 187.576 146.678C185.554 156.502 183.535 166.325 181.426 176.436Z" fill="#FABD0E"/>
<path d="M364.93 141.976C376.393 168.946 387.818 195.632 398.866 222.494C400.158 225.634 400.375 230.104 399.367 233.347C395.566 245.572 387.542 253.695 374.551 254.624C362.274 255.503 351.596 250.922 341.85 243.511C330.558 234.926 330.651 234.818 327.575 220.141C322.482 195.839 317.349 171.546 312.24 147.248C311.076 141.711 312.156 140.186 317.405 140.165C331.797 140.107 346.189 140.056 360.58 140.149C361.983 140.158 363.381 141.188 364.93 141.976Z" fill="#FABD0E"/>
<path d="M324.248 111.063C335.945 111.063 347.304 111.036 358.664 111.074C366.718 111.101 372.208 116.378 372.265 124.039C372.325 132.097 366.691 137.793 358.443 137.795C286.125 137.818 213.806 137.815 141.488 137.799C134.759 137.798 130.232 134.653 128.266 128.807C126.462 123.44 127.7 117.802 132.03 114.243C133.88 112.723 136.377 111.936 138.695 111.287C140.388 110.813 142.271 111.069 144.07 111.069C204.016 111.062 263.963 111.063 324.248 111.063ZM223.981 130.445C268.191 130.445 312.401 130.445 356.611 130.445C357.511 130.445 358.414 130.491 359.311 130.43C363.064 130.176 365.499 127.694 365.439 124.224C365.377 120.628 363.064 118.423 359.143 118.349C353.633 118.244 348.121 118.157 342.61 118.152C275.901 118.094 209.192 118.048 142.483 118.031C141.042 118.03 139.51 118.138 138.18 118.66C135.454 119.73 134.089 121.969 134.459 125.135C134.81 128.137 136.551 129.838 139.282 130.327C140.379 130.523 141.524 130.441 142.647 130.441C169.533 130.446 196.419 130.445 223.981 130.445Z" fill="#FABE11"/>
<path d="M154.863 341.795C154.878 321.875 154.889 302.316 154.912 282.757C154.918 277.705 155.714 276.845 160.361 276.844C183.528 276.838 206.695 276.837 229.862 276.846C234.145 276.847 235.059 277.772 235.06 282.275C235.067 323.433 235.059 364.591 235.043 405.749C235.042 409.883 233.982 410.954 229.973 410.955C206.919 410.962 183.865 410.959 160.81 410.958C155.602 410.958 154.902 410.201 154.897 404.432C154.879 383.673 154.873 362.914 154.863 341.795ZM213.178 284.163C196.132 284.163 179.086 284.163 162.021 284.163C162.021 324.296 162.021 363.933 162.021 403.498C184.212 403.498 206.089 403.498 227.956 403.498C227.956 363.608 227.956 323.969 227.956 284.163C223.067 284.163 218.46 284.163 213.178 284.163Z" fill="#FABE10"/>
<path d="M264.816 382.923C264.819 381.373 264.853 380.172 264.815 378.974C264.713 375.8 266.23 374.317 269.105 374.315C292.946 374.306 316.787 374.313 340.628 374.308C343.397 374.307 344.872 375.856 344.892 378.704C344.958 388.062 344.969 397.422 344.875 406.78C344.846 409.615 343.382 411.007 340.535 411C316.694 410.94 292.853 410.948 269.012 410.988C265.937 410.993 264.806 409.348 264.814 406.312C264.833 398.632 264.816 390.953 264.816 382.923ZM314.457 381.872C300.311 381.872 286.164 381.872 271.878 381.872C271.878 389.361 271.878 396.468 271.878 403.455C294.012 403.455 315.883 403.455 337.654 403.455C337.654 396.146 337.654 389.124 337.654 381.871C329.96 381.871 322.546 381.871 314.457 381.872Z" fill="#FABF16"/>
<path d="M262.806 362.08C259.769 362.084 257.066 362.175 254.37 362.072C249.634 361.892 246.619 358.611 246.608 353.6C246.552 328.148 246.504 302.695 246.51 277.243C246.512 269.986 249.325 267.005 256.221 266.996C288.741 266.957 321.261 266.959 353.78 266.995C360.434 267.002 363.245 270.231 363.289 277.958C363.363 290.924 363.332 303.891 363.304 316.858C363.278 328.861 363.216 340.864 363.135 352.866C363.095 358.853 359.895 362.151 354.287 362.146C323.906 362.119 293.525 362.101 262.806 362.08ZM356.435 278.297C356.901 275.09 355.428 274.088 352.616 274.134C344.295 274.268 335.972 274.311 327.649 274.302C304.478 274.276 281.307 274.208 258.136 274.15C253.36 274.139 253.329 274.16 253.329 279.325C253.329 303.091 253.398 326.857 253.254 350.622C253.232 354.154 254.228 354.988 257.427 354.976C289.037 354.852 320.648 354.834 352.258 354.994C355.844 355.012 356.523 353.767 356.503 350.264C356.372 326.5 356.435 302.733 356.435 278.297Z" fill="#FABE12"/>
<path d="M306.692 276.885C320.972 276.885 334.913 276.877 348.855 276.89C353.104 276.894 353.94 277.796 353.943 282.404C353.953 303.877 353.953 325.351 353.943 346.825C353.941 351.408 353.081 352.345 348.846 352.347C319.501 352.357 290.156 352.356 260.811 352.347C256.614 352.346 255.801 351.548 255.795 347.162C255.766 325.449 255.766 303.735 255.783 282.022C255.787 277.634 256.547 276.893 260.819 276.89C275.998 276.878 291.176 276.885 306.692 276.885Z" fill="#FABD0E"/>
<path d="M52.695 33.875H33.075V89H20.97V33.875H1.35V23.93H52.695V33.875ZM131.77 23.93V89H121.105V46.97C121.105 45.29 121.195 43.475 121.375 41.525L101.71 78.47C100.78 80.24 99.3548 81.125 97.4348 81.125H95.7248C93.8048 81.125 92.3798 80.24 91.4498 78.47L71.5598 41.39C71.6498 42.38 71.7248 43.355 71.7848 44.315C71.8448 45.275 71.8748 46.16 71.8748 46.97V89H61.2098V23.93H70.3448C70.8848 23.93 71.3498 23.945 71.7398 23.975C72.1298 24.005 72.4748 24.08 72.7748 24.2C73.1048 24.32 73.3898 24.515 73.6298 24.785C73.8998 25.055 74.1548 25.415 74.3948 25.865L93.8798 62C94.3898 62.96 94.8548 63.95 95.2748 64.97C95.7248 65.99 96.1598 67.04 96.5798 68.12C96.9998 67.01 97.4348 65.945 97.8848 64.925C98.3348 63.875 98.8148 62.87 99.3248 61.91L118.54 25.865C118.78 25.415 119.035 25.055 119.305 24.785C119.575 24.515 119.86 24.32 120.16 24.2C120.49 24.08 120.85 24.005 121.24 23.975C121.63 23.945 122.095 23.93 122.635 23.93H131.77ZM172.478 79.235C174.818 79.235 176.903 78.845 178.733 78.065C180.593 77.285 182.153 76.19 183.413 74.78C184.673 73.37 185.633 71.66 186.293 69.65C186.983 67.64 187.328 65.39 187.328 62.9V23.93H199.433V62.9C199.433 66.77 198.803 70.355 197.543 73.655C196.313 76.925 194.528 79.76 192.188 82.16C189.878 84.53 187.058 86.39 183.728 87.74C180.398 89.06 176.648 89.72 172.478 89.72C168.278 89.72 164.513 89.06 161.183 87.74C157.853 86.39 155.018 84.53 152.678 82.16C150.368 79.76 148.583 76.925 147.323 73.655C146.093 70.355 145.478 66.77 145.478 62.9V23.93H157.583V62.855C157.583 65.345 157.913 67.595 158.573 69.605C159.263 71.615 160.238 73.34 161.498 74.78C162.788 76.19 164.348 77.285 166.178 78.065C168.038 78.845 170.138 79.235 172.478 79.235ZM247.12 33.56V52.82H271.51V62.495H247.12V89H234.97V23.93H276.01V33.56H247.12ZM298.096 89H285.946V23.93H298.096V89ZM367.52 23.93V89H361.31C360.35 89 359.54 88.85 358.88 88.55C358.25 88.22 357.635 87.68 357.035 86.93L323.06 43.55C323.24 45.53 323.33 47.36 323.33 49.04V89H312.665V23.93H319.01C319.52 23.93 319.955 23.96 320.315 24.02C320.705 24.05 321.035 24.14 321.305 24.29C321.605 24.41 321.89 24.605 322.16 24.875C322.43 25.115 322.73 25.445 323.06 25.865L357.17 69.425C357.08 68.375 357.005 67.34 356.945 66.32C356.885 65.3 356.855 64.355 356.855 63.485V23.93H367.52ZM439.791 56.465C439.791 61.235 438.996 65.615 437.406 69.605C435.816 73.595 433.581 77.03 430.701 79.91C427.821 82.79 424.356 85.025 420.306 86.615C416.256 88.205 411.756 89 406.806 89H382.011V23.93H406.806C411.756 23.93 416.256 24.74 420.306 26.36C424.356 27.95 427.821 30.185 430.701 33.065C433.581 35.915 435.816 39.335 437.406 43.325C438.996 47.315 439.791 51.695 439.791 56.465ZM427.371 56.465C427.371 52.895 426.891 49.7 425.931 46.88C425.001 44.03 423.636 41.63 421.836 39.68C420.066 37.7 417.906 36.185 415.356 35.135C412.836 34.085 409.986 33.56 406.806 33.56H394.161V79.37H406.806C409.986 79.37 412.836 78.845 415.356 77.795C417.906 76.745 420.066 75.245 421.836 73.295C423.636 71.315 425.001 68.915 425.931 66.095C426.891 63.245 427.371 60.035 427.371 56.465ZM485.127 35.765C484.767 36.395 484.377 36.86 483.957 37.16C483.567 37.43 483.072 37.565 482.472 37.565C481.842 37.565 481.152 37.34 480.402 36.89C479.682 36.41 478.812 35.885 477.792 35.315C476.772 34.745 475.572 34.235 474.192 33.785C472.842 33.305 471.237 33.065 469.377 33.065C467.697 33.065 466.227 33.275 464.967 33.695C463.707 34.085 462.642 34.64 461.772 35.36C460.932 36.08 460.302 36.95 459.882 37.97C459.462 38.96 459.252 40.055 459.252 41.255C459.252 42.785 459.672 44.06 460.512 45.08C461.382 46.1 462.522 46.97 463.932 47.69C465.342 48.41 466.947 49.055 468.747 49.625C470.547 50.195 472.392 50.81 474.282 51.47C476.172 52.1 478.017 52.85 479.817 53.72C481.617 54.56 483.222 55.64 484.632 56.96C486.042 58.25 487.167 59.84 488.007 61.73C488.877 63.62 489.312 65.915 489.312 68.615C489.312 71.555 488.802 74.315 487.782 76.895C486.792 79.445 485.322 81.68 483.372 83.6C481.452 85.49 479.097 86.99 476.307 88.1C473.517 89.18 470.322 89.72 466.722 89.72C464.652 89.72 462.612 89.51 460.602 89.09C458.592 88.7 456.657 88.13 454.797 87.38C452.967 86.63 451.242 85.73 449.622 84.68C448.002 83.63 446.562 82.46 445.302 81.17L448.857 75.365C449.157 74.945 449.547 74.6 450.027 74.33C450.507 74.03 451.017 73.88 451.557 73.88C452.307 73.88 453.117 74.195 453.987 74.825C454.857 75.425 455.892 76.1 457.092 76.85C458.292 77.6 459.687 78.29 461.277 78.92C462.897 79.52 464.832 79.82 467.082 79.82C470.532 79.82 473.202 79.01 475.092 77.39C476.982 75.74 477.927 73.385 477.927 70.325C477.927 68.615 477.492 67.22 476.622 66.14C475.782 65.06 474.657 64.16 473.247 63.44C471.837 62.69 470.232 62.06 468.432 61.55C466.632 61.04 464.802 60.485 462.942 59.885C461.082 59.285 459.252 58.565 457.452 57.725C455.652 56.885 454.047 55.79 452.637 54.44C451.227 53.09 450.087 51.41 449.217 49.4C448.377 47.36 447.957 44.855 447.957 41.885C447.957 39.515 448.422 37.205 449.352 34.955C450.312 32.705 451.692 30.71 453.492 28.97C455.292 27.23 457.512 25.835 460.152 24.785C462.792 23.735 465.822 23.21 469.242 23.21C473.082 23.21 476.622 23.81 479.862 25.01C483.102 26.21 485.862 27.89 488.142 30.05L485.127 35.765Z" fill="#FABD0E"/>
</svg>
