<svg width="100" height="100" viewBox="0 0 100 100" fill="none" xmlns="http://www.w3.org/2000/svg">
<rect width="100" height="100" rx="50" fill="#0E6BC4"/>
<path d="M46.561 61.5812C47.3692 61.0626 48.1437 60.5664 48.9071 60.0511C49.0896 59.9279 49.2296 59.7351 49.3977 59.5852C50.247 58.8278 50.7303 58.8141 51.5678 59.5997C52.5886 60.5571 53.6271 61.4521 55.0126 61.7529C57.3428 62.2588 59.3782 61.7758 61.076 59.895C62.1706 58.6825 62.2232 58.6839 63.4921 59.7208C64.7282 60.7309 66.0265 61.5719 67.5938 61.8089C68.1921 61.8993 68.802 61.944 69.406 61.9376C70.0443 61.9308 70.2307 62.0684 70.2312 62.7532C70.2337 66.3007 70.2324 69.8482 70.2324 73.3957C70.2324 76.1868 70.2324 78.978 70.2324 81.7692C70.2324 81.9645 70.2324 82.1599 70.2324 82.415C70.496 82.415 70.7235 82.4069 70.9504 82.417C71.2525 82.4306 71.5609 82.4226 71.8545 82.4867C72.7946 82.692 73.0734 83.0973 72.975 84.0501C72.9226 84.5582 72.3149 84.9897 71.613 84.9926C70.0435 84.9991 68.4739 84.9947 66.9044 84.9947C66.5837 84.9947 66.2631 84.9951 65.9424 84.9946C65.1887 84.9935 65.0801 84.8747 65.0799 84.0476C65.0795 82.6791 65.0819 81.3105 65.0778 79.9419C65.077 79.6961 65.0506 79.4503 65.0344 79.1759C60.8231 79.1759 56.6605 79.1759 52.4361 79.1759C52.4179 79.5734 52.387 79.9602 52.385 80.3472C52.3784 81.6068 52.3848 82.8666 52.3816 84.1263C52.3798 84.8378 52.2366 84.9924 51.591 84.9942C50.8147 84.9963 50.0382 84.9841 49.2621 84.9987C48.8111 85.0071 48.6146 84.7651 48.5888 84.3179C48.5795 84.1564 48.5862 83.9939 48.5862 83.8318C48.5861 77.6372 48.5861 71.4427 48.5861 65.2481C48.5861 65.0353 48.5861 64.8225 48.5861 64.5448C44.3497 64.5448 40.1635 64.5448 35.9131 64.5448C35.9131 65.0931 35.9134 65.5925 35.913 66.092C35.9083 72.1423 35.9044 78.1926 35.8973 84.2429C35.8966 84.8142 35.733 84.9919 35.2101 84.9931C33.2693 84.9974 31.3284 85.0016 29.3876 84.9929C28.424 84.9886 27.9575 84.4779 28.0262 83.4703C28.0417 83.2422 28.1907 82.9213 28.3645 82.8297C28.7469 82.6283 29.1778 82.5055 29.6013 82.428C29.9447 82.3652 30.3061 82.4153 30.7461 82.4153C30.7461 82.21 30.7461 82.0049 30.7461 81.7999C30.7461 75.5332 30.746 69.2666 30.7462 63C30.7462 61.9891 30.8143 61.9511 31.7426 61.9505C33.5377 61.9492 35.2098 61.491 36.6859 60.3416C37.2425 59.9082 37.83 59.5198 38.4052 59.1137C38.7229 58.8894 39.0047 58.9521 39.2672 59.2338C39.4572 59.4377 39.6781 59.6102 39.8587 59.8225C41.7112 62.0001 43.9946 62.3193 46.561 61.5812ZM57.8394 78.0603C59.9492 78.0603 62.0599 78.1017 64.1684 78.0471C65.8306 78.0041 66.1679 78.5336 66.1045 80.1086C66.0541 81.3603 66.0943 82.6162 66.0943 83.8621C67.6718 84.0616 71.6222 83.947 72.0101 83.6098C71.5732 83.5739 71.2333 83.5298 70.8927 83.5226C70.5398 83.5151 70.1852 83.5674 69.8333 83.55C69.4183 83.5294 69.2086 83.3026 69.2103 82.8194C69.2149 81.506 69.1747 80.1925 69.1733 78.879C69.1681 73.8365 69.1712 68.794 69.1712 63.7514C69.1712 63.5397 69.1712 63.328 69.1712 63.1039C68.5425 63.0307 67.9567 62.9855 67.378 62.891C65.6608 62.6105 64.2098 61.7303 62.8647 60.6008C62.2964 60.1236 62.2636 60.1367 61.769 60.6967C60.2886 62.3726 58.464 63.123 56.323 63.041C54.2939 62.9633 52.5715 62.141 51.1139 60.6363C50.5074 60.0102 50.4665 60.0167 49.866 60.6248C48.5397 61.9678 47.0193 62.8448 45.167 63.0049C43.0716 63.1861 41.1737 62.7169 39.6239 61.1113C39.3245 60.8012 39.0966 60.4124 38.7955 60.0055C36.6735 61.9254 34.4829 63.1485 31.7764 63.0363C31.7764 63.307 31.7764 63.5006 31.7764 63.6941C31.7764 65.6571 31.7779 67.6201 31.776 69.5831C31.7718 73.9771 31.7671 78.3712 31.7593 82.7652C31.7583 83.3604 31.6106 83.5333 31.0456 83.5608C30.7106 83.5771 30.3726 83.5125 30.0368 83.5214C29.7034 83.5303 29.3712 83.5859 29.0385 83.621C29.0429 83.7062 29.0474 83.7915 29.0518 83.8768C30.9828 83.9518 32.9157 83.8971 34.8834 83.9072C34.8834 83.6396 34.8834 83.4442 34.8834 83.2489C34.8834 79.4489 34.8878 75.649 34.8816 71.8491C34.8781 69.6891 34.8529 67.5291 34.8456 65.369C34.8402 63.7625 35.1883 63.3963 36.6881 63.3963C40.3676 63.3963 44.047 63.3963 47.7265 63.3963C49.3412 63.3963 49.6471 63.7214 49.6472 65.4418C49.6475 71.3668 49.6473 77.2918 49.6473 83.2168C49.6473 83.4286 49.6473 83.6405 49.6473 83.8665C50.2378 83.8665 50.7797 83.8665 51.3288 83.8665C51.3358 83.6959 51.3452 83.5706 51.3453 83.4452C51.3465 82.2035 51.3347 80.9616 51.3493 79.72C51.3647 78.4136 51.7111 78.061 52.9278 78.0605C54.5313 78.0599 56.1347 78.0603 57.8394 78.0603Z" fill="#FABF14"/>
<path d="M50.3039 48.2516C50.3003 51.4907 50.29 54.6758 50.3 57.8608C50.3015 58.3286 50.1537 58.6082 49.7748 58.8611C49.3075 59.1729 48.9068 59.5979 48.4764 59.9727C46.496 61.6966 44.2956 62.0249 41.94 61.0552C41.4239 60.8428 40.9836 60.3959 40.54 60.0151C40.0682 59.61 39.6436 59.1428 39.1795 58.7266C38.917 58.4912 38.8318 58.2543 38.9094 57.8818C39.797 53.622 40.6746 49.3597 41.5384 45.0943C41.6425 44.5801 41.8732 44.3659 42.365 44.3687C44.7597 44.3821 47.1545 44.3733 49.5493 44.3788C50.1465 44.3802 50.2993 44.548 50.3019 45.1744C50.3061 46.1821 50.3035 47.1898 50.3039 48.2516Z" fill="#FABD0E"/>
<path d="M50.668 52.0336C50.6705 49.7292 50.672 47.4788 50.6762 45.2283C50.6776 44.52 50.8066 44.3797 51.4759 44.3785C53.8381 44.3741 56.2003 44.3826 58.5623 44.3672C59.0652 44.364 59.3233 44.5491 59.435 45.1009C60.2848 49.2981 61.1519 53.4913 62.0304 57.6817C62.1407 58.2078 62.0545 58.5649 61.6151 58.8734C61.2821 59.1074 61.0047 59.4383 60.7223 59.7467C59.1447 61.4702 57.2284 61.8523 55.0926 61.3846C54.0931 61.1657 53.2378 60.6595 52.4719 59.9464C52.0158 59.5217 51.4962 59.173 51.0523 58.7356C50.8699 58.5558 50.7169 58.2346 50.712 57.9743C50.6747 56.0126 50.6776 54.05 50.668 52.0336Z" fill="#FABD0E"/>
<path d="M40.2138 49.8151C39.641 52.5589 39.0883 55.2612 38.5123 57.9578C38.452 58.24 38.3131 58.5671 38.1107 58.7405C36.6055 60.0296 35.0463 61.1968 33.0542 61.513C30.7981 61.8712 28.8803 60.7956 28.1445 58.5483C27.9646 57.999 27.9379 57.2413 28.1489 56.7219C29.7491 52.7838 31.4302 48.8832 33.0733 44.9648C33.2557 44.5299 33.4971 44.346 33.9583 44.3509C36.1001 44.3737 38.2423 44.3599 40.3843 44.3617C41.1191 44.3623 41.2922 44.5939 41.1363 45.3514C40.8331 46.8249 40.5303 48.2985 40.2138 49.8151Z" fill="#FABD0E"/>
<path d="M67.7396 44.6467C69.4589 48.6922 71.1727 52.6951 72.8299 56.7244C73.0236 57.1955 73.0563 57.866 72.905 58.3525C72.3348 60.1861 71.1312 61.4046 69.1827 61.544C67.3411 61.6758 65.7394 60.9887 64.2774 59.8771C62.5837 58.5892 62.5976 58.5731 62.1362 56.3715C61.3722 52.7262 60.6024 49.0823 59.8361 45.4375C59.6614 44.607 59.8234 44.3782 60.6107 44.375C62.7695 44.3664 64.9283 44.3587 67.087 44.3727C67.2975 44.374 67.5071 44.5285 67.7396 44.6467Z" fill="#FABD0E"/>
<path d="M61.6364 40.0094C63.391 40.0095 65.0949 40.0054 66.7988 40.0111C68.0069 40.0151 68.8305 40.8067 68.839 41.9558C68.848 43.1645 68.0029 44.0189 66.7658 44.0193C55.918 44.0227 45.0703 44.0222 34.2225 44.0199C33.2132 44.0197 32.5341 43.5479 32.2393 42.671C31.9687 41.866 32.1543 41.0202 32.8039 40.4864C33.0813 40.2585 33.4559 40.1403 33.8036 40.043C34.0576 39.9719 34.3401 40.0104 34.6098 40.0103C43.6018 40.0093 52.5938 40.0095 61.6364 40.0094ZM46.5965 42.9167C53.228 42.9167 59.8595 42.9167 66.491 42.9167C66.626 42.9167 66.7614 42.9237 66.8959 42.9146C67.4589 42.8763 67.8241 42.504 67.8151 41.9836C67.8059 41.4442 67.4589 41.1135 66.8708 41.1023C66.0442 41.0867 65.2174 41.0736 64.3907 41.0728C54.3844 41.0641 44.3781 41.0572 34.3718 41.0546C34.1557 41.0545 33.9258 41.0707 33.7264 41.149C33.3174 41.3095 33.1128 41.6454 33.1683 42.1202C33.2209 42.5705 33.482 42.8257 33.8916 42.899C34.0562 42.9285 34.228 42.9161 34.3965 42.9162C38.4294 42.9169 42.4623 42.9167 46.5965 42.9167Z" fill="#FABE11"/>
<path d="M36.2295 74.6191C36.2318 71.6312 36.2334 68.6973 36.2369 65.7634C36.2378 65.0056 36.3572 64.8767 37.0542 64.8765C40.5293 64.8755 44.0043 64.8754 47.4793 64.8767C48.1219 64.8769 48.2589 65.0157 48.259 65.6911C48.2601 71.8649 48.2589 78.0386 48.2565 84.2123C48.2563 84.8323 48.0974 84.993 47.4961 84.9932C44.0379 84.9942 40.5797 84.9938 37.1216 84.9936C36.3404 84.9936 36.2354 84.8801 36.2346 84.0146C36.232 80.9008 36.231 77.7869 36.2295 74.6191ZM44.9767 65.9742C42.4198 65.9742 39.8629 65.9742 37.3032 65.9742C37.3032 71.9942 37.3032 77.9399 37.3032 83.8746C40.6319 83.8746 43.9134 83.8746 47.1934 83.8746C47.1934 77.891 47.1934 71.9452 47.1934 65.9742C46.4601 65.9742 45.769 65.9742 44.9767 65.9742Z" fill="#FABE10"/>
<path d="M52.7226 80.7884C52.7231 80.556 52.7281 80.3758 52.7224 80.196C52.7072 79.72 52.9346 79.4974 53.3658 79.4973C56.942 79.4959 60.5181 79.4969 64.0943 79.4961C64.5097 79.496 64.731 79.7283 64.734 80.1555C64.7438 81.5593 64.7455 82.9633 64.7314 84.367C64.7271 84.7922 64.5075 85.0011 64.0803 85C60.5042 84.991 56.9281 84.9922 53.3519 84.9982C52.8908 84.999 52.721 84.7522 52.7222 84.2967C52.7251 83.1448 52.7226 81.9928 52.7226 80.7884ZM60.1687 80.6307C58.0468 80.6307 55.9248 80.6307 53.7819 80.6307C53.7819 81.7541 53.7819 82.8202 53.7819 83.8682C57.102 83.8682 60.3826 83.8682 63.6483 83.8682C63.6483 82.7719 63.6483 81.7186 63.6483 80.6307C62.4942 80.6307 61.3821 80.6307 60.1687 80.6307Z" fill="#FABF16"/>
<path d="M52.421 77.6621C51.9655 77.6628 51.56 77.6764 51.1555 77.661C50.4452 77.634 49.993 77.1419 49.9913 76.3902C49.9829 72.5723 49.9757 68.7545 49.9766 64.9366C49.9769 63.8481 50.3989 63.4009 51.4333 63.3996C56.3112 63.3937 61.1892 63.394 66.0671 63.3994C67.0652 63.4005 67.4867 63.8849 67.4934 65.0439C67.5045 66.9888 67.4998 68.9339 67.4956 70.8789C67.4917 72.6793 67.4825 74.4797 67.4703 76.2801C67.4643 77.1781 66.9843 77.6729 66.1431 77.6721C61.5859 77.6681 57.0288 77.6653 52.421 77.6621ZM66.4652 65.0947C66.5352 64.6137 66.3142 64.4634 65.8925 64.4702C64.6443 64.4904 63.3958 64.4969 62.1474 64.4955C58.6718 64.4916 55.1962 64.4813 51.7205 64.4727C51.0041 64.471 50.9995 64.4742 50.9995 65.249C50.9994 68.8138 51.0098 72.3788 50.9882 75.9435C50.9849 76.4732 51.1343 76.5985 51.6141 76.5966C56.3556 76.578 61.0973 76.5753 65.8387 76.5993C66.3766 76.602 66.4785 76.4153 66.4756 75.8899C66.4558 72.3251 66.4652 68.7602 66.4652 65.0947Z" fill="#FABE12"/>
<path d="M59.0033 64.8827C61.1452 64.8827 63.2365 64.8815 65.3277 64.8834C65.9651 64.884 66.0905 65.0193 66.0909 65.7105C66.0925 68.9315 66.0924 72.1526 66.0909 75.3736C66.0906 76.0611 65.9616 76.2017 65.3264 76.2019C60.9247 76.2035 56.5229 76.2034 52.1212 76.202C51.4916 76.2018 51.3696 76.0821 51.3687 75.4243C51.3644 72.1672 51.3644 68.9102 51.367 65.6531C51.3676 64.995 51.4815 64.8838 52.1224 64.8834C54.3992 64.8817 56.6759 64.8827 59.0033 64.8827Z" fill="#FABD0E"/>
<path d="M17.7825 28.8125H14.5125V38H12.495V28.8125H9.225V27.155H17.7825V28.8125ZM30.9616 27.155V38H29.1841V30.995C29.1841 30.715 29.1991 30.4125 29.2291 30.0875L25.9516 36.245C25.7966 36.54 25.5591 36.6875 25.2391 36.6875H24.9541C24.6341 36.6875 24.3966 36.54 24.2416 36.245L20.9266 30.065C20.9416 30.23 20.9541 30.3925 20.9641 30.5525C20.9741 30.7125 20.9791 30.86 20.9791 30.995V38H19.2016V27.155H20.7241C20.8141 27.155 20.8916 27.1575 20.9566 27.1625C21.0216 27.1675 21.0791 27.18 21.1291 27.2C21.1841 27.22 21.2316 27.2525 21.2716 27.2975C21.3166 27.3425 21.3591 27.4025 21.3991 27.4775L24.6466 33.5C24.7316 33.66 24.8091 33.825 24.8791 33.995C24.9541 34.165 25.0266 34.34 25.0966 34.52C25.1666 34.335 25.2391 34.1575 25.3141 33.9875C25.3891 33.8125 25.4691 33.645 25.5541 33.485L28.7566 27.4775C28.7966 27.4025 28.8391 27.3425 28.8841 27.2975C28.9291 27.2525 28.9766 27.22 29.0266 27.2C29.0816 27.18 29.1416 27.1675 29.2066 27.1625C29.2716 27.1575 29.3491 27.155 29.4391 27.155H30.9616ZM37.7463 36.3725C38.1363 36.3725 38.4838 36.3075 38.7888 36.1775C39.0988 36.0475 39.3588 35.865 39.5688 35.63C39.7788 35.395 39.9388 35.11 40.0488 34.775C40.1638 34.44 40.2213 34.065 40.2213 33.65V27.155H42.2388V33.65C42.2388 34.295 42.1338 34.8925 41.9238 35.4425C41.7188 35.9875 41.4213 36.46 41.0313 36.86C40.6463 37.255 40.1763 37.565 39.6213 37.79C39.0663 38.01 38.4413 38.12 37.7463 38.12C37.0463 38.12 36.4188 38.01 35.8638 37.79C35.3088 37.565 34.8363 37.255 34.4463 36.86C34.0613 36.46 33.7638 35.9875 33.5538 35.4425C33.3488 34.8925 33.2463 34.295 33.2463 33.65V27.155H35.2638V33.6425C35.2638 34.0575 35.3188 34.4325 35.4288 34.7675C35.5438 35.1025 35.7063 35.39 35.9163 35.63C36.1313 35.865 36.3913 36.0475 36.6963 36.1775C37.0063 36.3075 37.3563 36.3725 37.7463 36.3725ZM50.1866 28.76V31.97H54.2516V33.5825H50.1866V38H48.1616V27.155H55.0016V28.76H50.1866ZM58.6827 38H56.6577V27.155H58.6827V38ZM70.2533 27.155V38H69.2183C69.0583 38 68.9233 37.975 68.8133 37.925C68.7083 37.87 68.6058 37.78 68.5058 37.655L62.8433 30.425C62.8733 30.755 62.8883 31.06 62.8883 31.34V38H61.1108V27.155H62.1683C62.2533 27.155 62.3258 27.16 62.3858 27.17C62.4508 27.175 62.5058 27.19 62.5508 27.215C62.6008 27.235 62.6483 27.2675 62.6933 27.3125C62.7383 27.3525 62.7883 27.4075 62.8433 27.4775L68.5283 34.7375C68.5133 34.5625 68.5008 34.39 68.4908 34.22C68.4808 34.05 68.4758 33.8925 68.4758 33.7475V27.155H70.2533ZM82.2984 32.5775C82.2984 33.3725 82.1659 34.1025 81.9009 34.7675C81.6359 35.4325 81.2634 36.005 80.7834 36.485C80.3034 36.965 79.7259 37.3375 79.0509 37.6025C78.3759 37.8675 77.6259 38 76.8009 38H72.6684V27.155H76.8009C77.6259 27.155 78.3759 27.29 79.0509 27.56C79.7259 27.825 80.3034 28.1975 80.7834 28.6775C81.2634 29.1525 81.6359 29.7225 81.9009 30.3875C82.1659 31.0525 82.2984 31.7825 82.2984 32.5775ZM80.2284 32.5775C80.2284 31.9825 80.1484 31.45 79.9884 30.98C79.8334 30.505 79.6059 30.105 79.3059 29.78C79.0109 29.45 78.6509 29.1975 78.2259 29.0225C77.8059 28.8475 77.3309 28.76 76.8009 28.76H74.6934V36.395H76.8009C77.3309 36.395 77.8059 36.3075 78.2259 36.1325C78.6509 35.9575 79.0109 35.7075 79.3059 35.3825C79.6059 35.0525 79.8334 34.6525 79.9884 34.1825C80.1484 33.7075 80.2284 33.1725 80.2284 32.5775ZM89.8546 29.1275C89.7946 29.2325 89.7296 29.31 89.6596 29.36C89.5946 29.405 89.5121 29.4275 89.4121 29.4275C89.3071 29.4275 89.1921 29.39 89.0671 29.315C88.9471 29.235 88.8021 29.1475 88.6321 29.0525C88.4621 28.9575 88.2621 28.8725 88.0321 28.7975C87.8071 28.7175 87.5396 28.6775 87.2296 28.6775C86.9496 28.6775 86.7046 28.7125 86.4946 28.7825C86.2846 28.8475 86.1071 28.94 85.9621 29.06C85.8221 29.18 85.7171 29.325 85.6471 29.495C85.5771 29.66 85.5421 29.8425 85.5421 30.0425C85.5421 30.2975 85.6121 30.51 85.7521 30.68C85.8971 30.85 86.0871 30.995 86.3221 31.115C86.5571 31.235 86.8246 31.3425 87.1246 31.4375C87.4246 31.5325 87.7321 31.635 88.0471 31.745C88.3621 31.85 88.6696 31.975 88.9696 32.12C89.2696 32.26 89.5371 32.44 89.7721 32.66C90.0071 32.875 90.1946 33.14 90.3346 33.455C90.4796 33.77 90.5521 34.1525 90.5521 34.6025C90.5521 35.0925 90.4671 35.5525 90.2971 35.9825C90.1321 36.4075 89.8871 36.78 89.5621 37.1C89.2421 37.415 88.8496 37.665 88.3846 37.85C87.9196 38.03 87.3871 38.12 86.7871 38.12C86.4421 38.12 86.1021 38.085 85.7671 38.015C85.4321 37.95 85.1096 37.855 84.7996 37.73C84.4946 37.605 84.2071 37.455 83.9371 37.28C83.6671 37.105 83.4271 36.91 83.2171 36.695L83.8096 35.7275C83.8596 35.6575 83.9246 35.6 84.0046 35.555C84.0846 35.505 84.1696 35.48 84.2596 35.48C84.3846 35.48 84.5196 35.5325 84.6646 35.6375C84.8096 35.7375 84.9821 35.85 85.1821 35.975C85.3821 36.1 85.6146 36.215 85.8796 36.32C86.1496 36.42 86.4721 36.47 86.8471 36.47C87.4221 36.47 87.8671 36.335 88.1821 36.065C88.4971 35.79 88.6546 35.3975 88.6546 34.8875C88.6546 34.6025 88.5821 34.37 88.4371 34.19C88.2971 34.01 88.1096 33.86 87.8746 33.74C87.6396 33.615 87.3721 33.51 87.0721 33.425C86.7721 33.34 86.4671 33.2475 86.1571 33.1475C85.8471 33.0475 85.5421 32.9275 85.2421 32.7875C84.9421 32.6475 84.6746 32.465 84.4396 32.24C84.2046 32.015 84.0146 31.735 83.8696 31.4C83.7296 31.06 83.6596 30.6425 83.6596 30.1475C83.6596 29.7525 83.7371 29.3675 83.8921 28.9925C84.0521 28.6175 84.2821 28.285 84.5821 27.995C84.8821 27.705 85.2521 27.4725 85.6921 27.2975C86.1321 27.1225 86.6371 27.035 87.2071 27.035C87.8471 27.035 88.4371 27.135 88.9771 27.335C89.5171 27.535 89.9771 27.815 90.3571 28.175L89.8546 29.1275Z" fill="#FABD0E"/>
</svg>
