<?xml version="1.0" standalone="no"?>
<!DOCTYPE svg PUBLIC "-//W3C//DTD SVG 20010904//EN"
 "http://www.w3.org/TR/2001/REC-SVG-20010904/DTD/svg10.dtd">
<svg version="1.0" xmlns="http://www.w3.org/2000/svg"
 width="30.000000pt" height="30.000000pt" viewBox="0 0 30.000000 30.000000"
 preserveAspectRatio="xMidYMid meet">

<g transform="translate(0.000000,30.000000) scale(0.100000,-0.100000)"
fill="#000000" stroke="none">
<path d="M37 263 c-11 -11 -8 -153 3 -153 6 0 10 30 10 70 l0 70 70 0 c40 0
70 4 70 10 0 11 -142 14 -153 3z"/>
<path d="M77 223 c-11 -11 -8 -153 3 -153 6 0 10 30 10 70 l0 70 70 0 c40 0
70 4 70 10 0 11 -142 14 -153 3z"/>
<path d="M114 177 c-3 -8 -4 -43 -2 -78 l3 -64 48 -3 c33 -2 47 0 42 7 -3 6
-22 11 -41 11 l-34 0 0 60 0 60 60 0 60 0 0 -34 c0 -19 5 -38 11 -41 7 -5 9 9
7 42 l-3 48 -73 3 c-55 2 -74 -1 -78 -11z"/>
<path d="M180 107 c0 -7 16 -28 35 -47 27 -26 38 -31 47 -22 9 9 4 20 -22 47
-35 36 -60 45 -60 22z"/>
<path d="M275 19 c-4 -6 -5 -13 -2 -16 7 -7 27 6 27 18 0 12 -17 12 -25 -2z"/>
</g>
</svg>
